<svg version="1.1" xmlns="http://www.w3.org/2000/svg" viewBox="-274.4319984436035 -1078.272021484375 5316.5734589609165 2447.1040740966796"><desc>Created with Snap</desc><defs></defs><g><rect x="-274.4319984436035" y="-1078.272021484375" width="5316.5734589609165" height="2447.1040740966796" fill="#004e89" style=""></rect><g transform="matrix(21.135,0,0,21.135,2621.4399,-897.8821)"><title>artifact</title><desc>Created with Sketch.</desc><g stroke="none" stroke-width="1" fill="none" fill-rule="evenodd"><g transform="translate(0.000000, 6.000000)" fill="#000000" fill-rule="nonzero"><polygon points="32.7402222 56.7022222 0 0 30.3677778 0 43.2977778 46.2633333" fill="#ffffff" style=""></polygon><polygon points="37.7224444 12.4555556 34.5195556 0 100 0 85.2906667 25.3855556" fill="#ffffff" style=""></polygon><polygon points="46.5005556 42.586 39.5017778 17.2004444 65.0058889 23.8434444" fill="#ffffff" style=""></polygon><polygon points="69.7508889 24.911 35.1126667 60.1423333 50.2965556 86.7141111 83.5112222 28.5883333" fill="#ffffff" style=""></polygon></g></g><defs></defs></g><g><g transform="matrix(1.024,0,0,-1.024,0,0)"><path d="M127 0L32 0L348 753L354 753L669 0L558 0L322 601L391 646L127 0ZM189 190L217 274L486 274L518 190L189 190ZM1026 -10Q979 -10 935 12Q892 34 868 71L874 100L874 -199L782 -199L782 420L862 420L875 314L865 343Q895 381 941 406Q987 431 1044 431Q1102 431 1148 403Q1195 375 1222 325Q1249 275 1249 208Q1249 141 1220 92Q1191 43 1140 16Q1090 -10 1026 -10ZM1008 64Q1048 64 1081 82Q1115 101 1135 133Q1155 166 1155 207Q1155 249 1136 281Q1117 314 1085 333Q1054 352 1015 352Q979 352 950 338Q921 324 902 299Q883 275 875 243L875 174Q880 142 899 117Q918 92 946 78Q975 64 1008 64ZM1567 -10Q1496 -10 1445 18Q1394 47 1366 96Q1339 146 1339 210Q1339 271 1370 321Q1401 371 1453 401Q1505 431 1569 431Q1651 431 1705 383Q1759 335 1778 251L1437 131L1415 186L1695 288L1675 275Q1663 308 1635 332Q1607 357 1562 357Q1524 357 1494 338Q1464 320 1447 288Q1430 256 1430 215Q1430 172 1448 139Q1466 107 1497 88Q1529 70 1569 70Q1596 70 1621 80Q1647 90 1669 106L1712 37Q1681 16 1642 3Q1604 -10 1567 -10ZM2085 192L2051 260L2150 414L2244 414L2085 192ZM1948 414L2260 0L2148 0L1833 414L1948 414ZM1996 216L2041 154L1932 0L1838 0L1996 216Z" fill="#ffffff" style=""></path></g></g><g transform="matrix(0.75,0,0,0.75,870.3998,1052.416)"><g transform="matrix(1.024,0,0,-1.024,0,0)"><path d="M50 0L50 29Q88 29 103 33Q119 37 123 48Q127 60 127 89L127 571Q127 599 122 610Q118 622 102 626Q87 631 50 631L50 660L301 660Q414 660 478 623Q543 586 543 508Q543 452 508 413Q474 374 412 360L412 359Q485 346 529 299Q573 253 573 178Q573 0 318 0L50 0ZM219 372L293 372Q446 372 446 498Q446 626 284 626Q255 626 241 622Q227 618 223 608Q219 599 219 580L219 372ZM301 33Q380 33 425 68Q470 103 470 179Q470 254 425 295Q381 337 296 337L219 337L219 106Q219 64 236 48Q253 33 301 33ZM1093 83Q1093 58 1097 47Q1101 37 1115 33Q1129 29 1161 29L1161 0L1010 0L1010 70L1007 70L1007 72Q942 -12 845 -12Q712 -12 712 131L712 383Q712 409 706 418Q700 427 682 427L648 427L648 456L769 474L797 474L797 147Q797 97 819 67Q842 37 889 37Q954 37 1007 113L1008 383Q1008 409 1002 418Q996 427 978 427L944 427L944 456L1065 474L1093 474L1093 83ZM1236 0L1236 29Q1269 29 1283 33Q1297 37 1301 47Q1305 58 1305 83L1305 433L1235 433L1235 468L1305 468L1305 532Q1305 612 1342 658Q1380 705 1455 705Q1512 705 1541 680Q1571 655 1571 617Q1571 595 1558 581Q1546 567 1525 567Q1504 567 1491 578Q1479 590 1479 611Q1479 626 1488 638Q1497 650 1497 656Q1497 664 1486 669Q1475 675 1460 675Q1427 675 1408 649Q1390 623 1390 572L1390 468L1502 468L1502 433L1390 433L1390 82Q1390 56 1395 46Q1400 36 1417 32Q1434 29 1476 29L1476 0L1236 0ZM1545 0L1545 29Q1578 29 1592 33Q1606 37 1610 47Q1614 58 1614 83L1614 433L1544 433L1544 468L1614 468L1614 532Q1614 612 1651 658Q1689 705 1764 705Q1821 705 1850 680Q1880 655 1880 617Q1880 595 1867 581Q1855 567 1834 567Q1813 567 1800 578Q1788 590 1788 611Q1788 626 1797 638Q1806 650 1806 656Q1806 664 1795 669Q1784 675 1769 675Q1736 675 1717 649Q1699 623 1699 572L1699 468L1811 468L1811 433L1699 433L1699 82Q1699 56 1704 46Q1709 36 1726 32Q1743 29 1785 29L1785 0L1545 0Z" fill="#ffffff" style=""></path></g></g></g></svg>